<?xml version="1.0" encoding="iso-8859-1"?>
<!-- Generator: Adobe Illustrator 19.0.0, SVG Export Plug-In . SVG Version: 6.00 Build 0)  -->
<svg version="1.1" id="Layer_1" xmlns="http://www.w3.org/2000/svg" xmlns:xlink="http://www.w3.org/1999/xlink" x="0px" y="0px"
	 viewBox="0 0 512.375 512.375" style="enable-background:new 0 0 512.375 512.375;" xml:space="preserve">
<g transform="translate(1 1)">
	<g>
		<path style="fill:#FFDD09;" d="M155.321,73.854l7.68-5.12c3.413-2.56,7.68-4.267,11.947-5.973l-0.853-0.853
			c-6.827-6.827-6.827-17.067,0-23.893s6.827-17.92-0.853-24.747c-7.68-6.827-18.773-5.12-25.6,2.56
			c-16.213,17.92-17.067,45.227-2.56,64.853C148.495,78.121,151.908,75.561,155.321,73.854"/>
		<path style="fill:#FFDD09;" d="M471.908,385.321l-168.96-168.96l-11.947-11.947l-69.973-69.973
			c-9.387,6.827-1.707,5.12-9.387,12.8l70.827,70.827l-48.64,48.64l217.6,217.6l20.48-26.453
			C491.535,438.227,491.535,405.801,471.908,385.321"/>
	</g>
	<path style="fill:#FD9808;" d="M485.561,376.787l-168.96-168.96l-11.947-11.947l-69.973-69.973
		c-5.12,3.413-9.387,7.68-13.653,11.093l68.267,68.267l11.947,11.947l168.96,168.96c19.627,19.627,19.627,52.053,0,72.533
		l-19.627,25.6l34.987-34.987C506.041,429.694,506.041,397.267,485.561,376.787"/>
	<g>
		<path style="fill:#FFDD09;" d="M495.801,359.721l-168.96-168.96l-11.947-11.947l-69.973-69.973
			c-5.12,3.413-9.387,7.68-13.653,11.093l68.267,68.267l11.947,11.947l168.96,168.96c19.627,19.627,19.627,52.053,0,72.533
			l-19.627,25.6l34.987-34.987C516.281,412.627,516.281,380.201,495.801,359.721"/>
		<path style="fill:#FFDD09;" d="M218.468,53.374c-18.773-0.853-40.107,5.12-56.32,15.36l-7.68,5.12
			C35.001,149.801-7.665,311.934,11.961,454.441c4.267,29.867,31.573,50.347,61.44,46.933c29.867-4.267,50.347-31.573,46.933-61.44
			c-14.507-104.107,27.307-250.027,120.32-318.293c3.413-2.56,5.973-5.973,8.533-9.387l6.827-11.947
			c4.267-7.68,5.973-17.067,2.56-24.747C253.455,60.201,237.241,54.227,218.468,53.374"/>
	</g>
	<path style="fill:#FFFFFF;" d="M38.415,454.441c-19.627-142.507,23.04-304.64,143.36-380.587l7.68-5.12
		c11.947-7.68,26.453-11.947,40.107-14.507c-3.413-0.853-6.827-0.853-10.24-0.853c-18.773-0.853-40.107,5.12-56.32,15.36l-7.68,5.12
		C35.855,149.801-6.812,311.934,12.815,454.441c4.267,29.867,31.573,50.347,61.44,46.933c1.707,0,3.413-0.853,5.12-0.853
		C58.895,494.547,41.828,477.481,38.415,454.441"/>
	<g>
		<path style="fill:#1CD759;" d="M212.495,104.574c0,11.947-9.387,21.333-21.333,21.333c-11.947,0-21.333-9.387-21.333-21.333
			s9.387-21.333,21.333-21.333C203.108,83.241,212.495,92.627,212.495,104.574"/>
		<path style="fill:#1CD759;" d="M93.028,441.641c0,14.507-11.093,25.6-25.6,25.6s-25.6-11.093-25.6-25.6
			c0-14.507,11.093-25.6,25.6-25.6S93.028,427.987,93.028,441.641"/>
	</g>
	<path d="M66.575,509.907c-13.653,0-26.453-4.267-37.547-12.8c-13.653-10.24-22.187-24.747-24.747-41.813
		c-28.16-200.533,61.44-334.507,146.773-389.12l7.68-5.12c17.067-11.093,40.107-17.067,60.587-16.213
		c23.893,0.853,41.813,10.24,48.64,26.453c4.267,10.24,2.56,22.187-3.413,32.427l-6.827,11.947
		c-2.56,4.267-5.973,8.533-11.093,11.947c-91.307,66.56-131.413,209.92-116.907,309.76c2.56,17.067-1.707,33.28-11.947,46.933
		s-24.747,22.187-41.813,24.747C71.695,509.907,69.135,509.907,66.575,509.907z M216.761,61.907c-17.067,0-35.84,5.12-49.493,13.653
		l-7.68,5.12C78.521,131.881-5.959,260.734,20.495,452.734c1.707,11.947,7.68,23.04,17.92,30.72
		c9.387,7.68,22.187,10.24,34.133,8.533c11.947-1.707,23.04-7.68,30.72-17.92c7.68-9.387,10.24-22.187,8.533-34.133
		c-14.507-104.96,28.16-256,123.733-325.973c2.56-1.707,5.12-4.267,5.973-6.827l6.827-11.947c3.413-5.973,4.267-11.947,2.56-17.067
		c-5.12-13.653-24.747-15.36-33.28-16.213l0,0C217.615,61.907,216.761,61.907,216.761,61.907z"/>
	<path d="M475.321,468.947c-2.56,0-4.267-0.853-5.973-2.56l-217.6-217.6c-3.413-3.413-3.413-8.533,0-11.947s8.533-3.413,11.947,0
		l217.6,217.6c3.413,3.413,3.413,8.533,0,11.947C479.588,468.094,477.881,468.947,475.321,468.947z"/>
	<path d="M67.428,475.774c-18.773,0-34.133-15.36-34.133-34.133c0-18.773,15.36-34.133,34.133-34.133s34.133,15.36,34.133,34.133
		C101.561,460.414,86.201,475.774,67.428,475.774z M67.428,424.574c-9.387,0-17.067,7.68-17.067,17.067
		c0,9.387,7.68,17.067,17.067,17.067s17.067-7.68,17.067-17.067C84.495,432.254,76.815,424.574,67.428,424.574z"/>
	<path d="M459.961,451.027c-5.12,0-8.533-3.413-8.533-8.533v-35.84c0-5.12,3.413-8.533,8.533-8.533c5.12,0,8.533,3.413,8.533,8.533
		v35.84C468.495,446.761,464.228,451.027,459.961,451.027z"/>
	<path d="M425.828,416.041c-5.12,0-8.533-3.413-8.533-8.533v-35.84c0-5.12,3.413-8.533,8.533-8.533c5.12,0,8.533,3.413,8.533,8.533
		v35.84C434.361,412.627,430.095,416.041,425.828,416.041z"/>
	<path d="M391.695,381.907c-5.12,0-8.533-3.413-8.533-8.533v-35.84c0-5.12,3.413-8.533,8.533-8.533c5.12,0,8.533,3.413,8.533,8.533
		v35.84C400.228,378.494,395.961,381.907,391.695,381.907z"/>
	<path d="M357.561,347.774c-5.12,0-8.533-3.413-8.533-8.533v-35.84c0-5.12,3.413-8.533,8.533-8.533c5.12,0,8.533,3.413,8.533,8.533
		v35.84C366.095,344.361,361.828,347.774,357.561,347.774z"/>
	<path d="M143.375,92.627l-5.12-6.827c-17.067-23.04-16.213-54.613,3.413-75.947c5.12-5.973,11.947-8.533,19.627-9.387
		c6.827,0,12.8,1.707,17.92,6.827c5.12,5.12,8.533,11.093,8.533,18.773c0,6.827-2.56,13.653-7.68,18.773
		c-1.707,0.853-2.56,2.56-2.56,5.12s0.853,4.267,2.56,5.973l9.387,9.387l-11.093,5.12c-4.267,1.707-7.68,3.413-10.24,5.12
		l-7.68,5.12c-3.413,2.56-6.827,4.267-10.24,6.827L143.375,92.627z M162.148,17.534L162.148,17.534c-3.413,0-5.973,1.707-7.68,3.413
		c-11.947,12.8-14.507,31.573-6.827,46.933c0.853-0.853,1.707-1.707,3.413-1.707l0,0l7.68-5.12c0.853-0.853,2.56-1.707,3.413-2.56
		c-0.853-3.413-1.707-5.973-1.707-9.387c0-6.827,2.56-12.8,7.68-17.92c0.853-0.853,1.707-3.413,1.707-5.12
		c0-2.56-0.853-4.267-2.56-5.973C165.561,18.387,163.855,17.534,162.148,17.534z"/>
	<path d="M451.428,496.254L221.881,267.561l48.64-48.64l-70.827-70.827l5.973-5.973c8.533-8.533,17.067-16.213,26.453-23.893
		l5.973-4.267l256,256c23.04,23.04,23.04,61.44,0,84.48L451.428,496.254z M245.775,267.561l204.8,204.8l29.867-29.867
		c16.213-16.213,16.213-43.52,0-60.587l-244.907-245.76c-4.267,3.413-8.533,7.68-12.8,11.093l70.827,70.827L245.775,267.561z"/>
	<path d="M191.161,134.441c-16.213,0-29.867-13.653-29.867-29.867s13.653-29.867,29.867-29.867s29.867,13.653,29.867,29.867
		S207.375,134.441,191.161,134.441z M191.161,91.774c-6.827,0-12.8,5.973-12.8,12.8s5.973,12.8,12.8,12.8s12.8-5.973,12.8-12.8
		S197.988,91.774,191.161,91.774z"/>
</g>
<g>
</g>
<g>
</g>
<g>
</g>
<g>
</g>
<g>
</g>
<g>
</g>
<g>
</g>
<g>
</g>
<g>
</g>
<g>
</g>
<g>
</g>
<g>
</g>
<g>
</g>
<g>
</g>
<g>
</g>
</svg>
